<?xml version="1.0" standalone="no"?>
<!DOCTYPE svg PUBLIC "-//W3C//DTD SVG 20010904//EN"
 "http://www.w3.org/TR/2001/REC-SVG-20010904/DTD/svg10.dtd">
<svg version="1.0" xmlns="http://www.w3.org/2000/svg"
 width="24px" height="24px" viewBox="0 0 1280.000000 1062.000000"
 preserveAspectRatio="xMidYMid meet">
<g transform="translate(0.000000,1062.000000) scale(0.100000,-0.100000)"
fill="#000000" stroke="none">
<path d="M8630 10614 c-19 -2 -82 -9 -140 -15 -753 -79 -1445 -481 -1766
-1024 -237 -402 -259 -870 -59 -1280 105 -217 292 -441 502 -605 l32 -25 -325
-445 c-179 -245 -330 -453 -335 -462 -9 -16 -6 -16 33 1 99 43 242 107 563
251 473 212 681 300 707 300 13 0 50 -10 83 -21 152 -51 399 -104 610 -130
132 -17 521 -17 660 0 433 51 815 175 1144 370 172 102 271 180 422 330 240
240 365 464 431 775 31 146 30 390 -1 531 -92 402 -342 735 -757 1005 -336
218 -743 363 -1199 425 -113 15 -523 28 -605 19z"/>
<path d="M4335 9219 c-637 -60 -1174 -302 -1435 -647 -63 -83 -144 -245 -167
-332 -23 -87 -22 -254 0 -340 80 -302 364 -583 767 -760 531 -233 1189 -281
1792 -130 l118 30 172 -64 c95 -35 325 -121 512 -190 186 -70 340 -125 342
-124 1 2 -114 137 -257 300 -142 164 -259 301 -259 306 0 5 31 29 68 55 161
110 309 276 381 427 56 117 74 195 74 315 0 124 -20 210 -77 330 -195 409
-725 719 -1386 810 -139 19 -507 27 -645 14z"/>
<path d="M1900 7319 c-949 -94 -1711 -659 -1871 -1389 -34 -150 -34 -390 -1
-538 32 -141 66 -239 124 -356 191 -385 568 -704 1050 -890 342 -132 746 -193
1098 -167 252 19 450 57 663 127 97 32 111 35 140 23 58 -23 426 -194 772
-359 187 -89 350 -166 363 -171 23 -9 23 -9 7 19 -9 15 -82 122 -162 237 -276
398 -413 604 -413 622 1 10 26 38 56 63 99 80 240 243 326 376 85 132 165 340
194 504 22 124 22 326 0 450 -35 198 -134 429 -259 607 -122 173 -351 381
-557 505 -266 161 -606 277 -944 323 -138 19 -459 27 -586 14z"/>
<path d="M10530 7153 c-392 -19 -822 -123 -1148 -279 -523 -249 -825 -631
-825 -1044 0 -314 170 -598 504 -845 l97 -72 -299 -343 c-165 -188 -298 -344
-296 -346 2 -2 170 59 373 134 203 76 464 174 581 217 l212 78 129 -31 c284
-70 516 -96 827 -95 595 1 1118 141 1525 407 670 438 777 1046 276 1565 -425
439 -1179 691 -1956 654z"/>
<path d="M6325 6264 c-177 -31 -376 -120 -513 -230 -296 -236 -425 -618 -326
-960 40 -141 110 -262 218 -381 l56 -61 -120 -197 c-146 -241 -183 -305 -175
-305 3 0 136 70 295 156 l289 155 88 -30 c129 -44 247 -63 393 -63 312 0 580
106 794 311 185 180 273 368 283 612 11 255 -68 469 -243 658 -160 173 -420
306 -668 340 -104 15 -273 12 -371 -5z"/>
<path d="M6833 3765 c-272 -61 -447 -344 -378 -610 23 -87 62 -153 135 -225
193 -192 480 -200 683 -19 109 97 159 208 159 359 1 145 -40 251 -137 358
-105 117 -299 175 -462 137z"/>
<path d="M8713 3769 c-158 -27 -295 -127 -361 -262 -40 -80 -51 -133 -52 -233
0 -187 99 -352 262 -435 208 -105 433 -68 588 98 105 112 145 218 138 373 -3
91 -7 104 -46 183 -64 129 -166 219 -297 260 -65 21 -167 28 -232 16z"/>
<path d="M10520 3761 c-84 -27 -133 -56 -198 -115 -101 -94 -152 -215 -152
-362 0 -222 139 -411 353 -475 55 -17 87 -21 171 -17 94 3 109 6 177 40 259
128 362 426 234 679 -61 119 -168 211 -293 249 -83 26 -215 26 -292 1z"/>
<path d="M4953 3756 c-181 -44 -334 -202 -372 -384 -58 -277 136 -549 422
-594 265 -41 516 151 559 427 22 139 -27 290 -130 405 -117 130 -305 188 -479
146z"/>
<path d="M1195 3750 c-156 -24 -300 -127 -367 -261 -99 -196 -68 -412 82 -573
275 -294 762 -152 846 246 35 163 -19 329 -147 457 -103 103 -267 155 -414
131z"/>
<path d="M2985 3737 c-169 -57 -285 -181 -330 -354 -65 -248 83 -508 336 -593
53 -18 81 -21 169 -18 97 3 111 6 183 40 214 102 330 325 283 546 -32 155
-132 284 -272 354 -81 40 -89 42 -192 45 -91 3 -117 0 -177 -20z"/>
<path d="M6444 2825 c-2 -11 -3 -638 -2 -1393 l3 -1374 24 -19 c23 -19 38 -20
222 -17 141 2 202 7 210 15 23 23 27 121 28 596 1 304 4 467 11 467 7 0 10
-179 10 -517 0 -285 4 -523 8 -529 19 -28 56 -34 225 -34 97 0 187 5 205 11
30 10 30 11 37 102 4 51 8 679 8 1397 l2 1305 -99 3 c-87 2 -107 0 -160 -22
-162 -67 -305 -69 -460 -7 -58 23 -91 30 -170 32 -90 4 -97 3 -102 -16z"/>
<path d="M8302 2835 c-4 -5 -6 -631 -4 -1390 l3 -1380 25 -22 c24 -22 32 -23
213 -23 171 0 191 2 212 19 l24 19 3 521 c2 451 4 521 17 521 13 0 15 -68 15
-512 0 -394 3 -519 13 -538 l13 -25 205 0 c224 0 232 2 243 56 4 22 9 2326 6
2747 0 9 -28 12 -105 12 -84 0 -113 -4 -143 -19 -141 -72 -336 -74 -487 -5
-46 21 -243 36 -253 19z"/>
<path d="M10167 2828 c-3 -11 -3 -638 0 -1391 6 -1327 7 -1371 25 -1389 18
-18 34 -19 224 -16 190 3 207 4 220 22 12 17 14 107 14 538 0 454 2 518 15
518 13 0 15 -65 15 -523 0 -495 1 -525 18 -540 16 -15 46 -17 210 -17 192 0
235 6 246 37 8 19 8 2762 1 2774 -4 5 -48 9 -99 9 -78 0 -102 -4 -147 -25 -95
-43 -174 -58 -274 -52 -85 5 -185 31 -247 63 -18 9 -60 14 -121 14 -89 0 -95
-1 -100 -22z"/>
<path d="M11187 2843 c-4 -3 -7 -269 -7 -590 0 -656 -4 -621 73 -567 23 16 55
49 72 73 l30 43 3 428 c4 456 1 486 -44 539 -43 51 -111 91 -127 74z"/>
<path d="M4577 2833 c-4 -3 -7 -624 -7 -1379 0 -1012 3 -1380 11 -1398 20 -42
64 -50 255 -43 183 7 198 9 210 35 5 9 10 248 12 530 2 305 7 512 13 512 5 0
9 -205 9 -514 0 -491 1 -515 19 -537 19 -24 21 -24 220 -24 195 0 201 1 223
23 l23 23 4 1383 3 1383 -23 6 c-13 4 -58 7 -99 7 -59 0 -86 -6 -128 -25 -160
-74 -348 -74 -511 0 -44 21 -69 25 -141 25 -47 0 -90 -3 -93 -7z"/>
<path d="M5596 2832 c-3 -3 -6 -270 -6 -594 0 -565 1 -588 18 -588 26 0 94 51
123 92 21 28 25 48 30 148 8 165 -1 779 -13 817 -15 52 -131 146 -152 125z"/>
<path d="M6375 2825 c-41 -19 -69 -43 -99 -89 l-26 -39 0 -456 c0 -408 2 -459
17 -481 50 -76 126 -128 144 -99 10 17 12 1149 1 1166 -5 8 -15 8 -37 -2z"/>
<path d="M7458 2663 c-8 -242 3 -1002 14 -1009 22 -14 128 79 147 129 7 18 11
183 11 470 0 439 0 442 -23 482 -24 43 -99 105 -126 105 -16 0 -19 -16 -23
-177z"/>
<path d="M8215 2817 c-59 -33 -102 -96 -110 -159 -3 -29 -5 -238 -3 -464 l3
-411 28 -41 c29 -41 95 -92 121 -92 7 0 16 14 20 31 3 17 6 278 6 578 0 422
-3 551 -12 564 -12 15 -16 15 -53 -6z"/>
<path d="M9317 2833 c-11 -10 -8 -1156 2 -1172 14 -22 97 33 136 88 l30 43 3
444 3 445 -28 51 c-35 65 -122 125 -146 101z"/>
<path d="M10061 2809 c-27 -19 -51 -48 -64 -77 -21 -46 -22 -60 -25 -484 -3
-418 -2 -438 17 -475 10 -21 32 -50 48 -64 34 -32 92 -63 101 -54 8 8 15 1131
7 1163 -7 30 -34 28 -84 -9z"/>
<path d="M774 2805 c-2 -11 -3 -638 -2 -1393 l3 -1374 24 -19 c23 -19 38 -20
222 -17 141 2 202 7 210 15 23 23 27 121 28 596 1 288 5 467 11 467 5 0 10
-199 12 -517 2 -405 6 -523 16 -541 l13 -23 209 3 c151 2 213 7 222 16 23 23
28 313 26 1557 l-3 1240 -99 3 c-91 3 -105 0 -171 -27 -152 -64 -334 -63 -460
3 -30 15 -66 21 -148 26 -102 5 -108 4 -113 -15z"/>
<path d="M2640 1446 l0 -1383 21 -27 20 -26 199 0 c173 0 200 2 219 18 22 17
22 17 24 536 2 405 5 520 15 524 9 3 12 -106 12 -522 l0 -526 24 -15 c19 -13
57 -15 227 -13 l204 3 14 30 c12 26 15 230 15 1405 l1 1375 -96 3 c-86 2 -103
0 -155 -23 -164 -73 -322 -73 -496 1 -47 20 -75 24 -153 24 l-95 0 0 -1384z"/>
<path d="M3659 2618 c-2 -398 3 -973 8 -978 12 -13 100 51 130 94 l33 48 0
453 0 452 -29 43 c-28 42 -102 100 -128 100 -10 0 -13 -41 -14 -212z"/>
<path d="M4485 2807 c-45 -25 -79 -72 -98 -131 -9 -30 -12 -152 -11 -462 l0
-420 25 -45 c24 -44 111 -113 133 -106 15 5 16 1179 1 1183 -5 2 -28 -6 -50
-19z"/>
<path d="M701 2803 c-40 -20 -86 -64 -109 -107 -15 -28 -17 -72 -15 -478 1
-379 4 -451 17 -476 22 -42 104 -112 132 -112 l24 0 0 589 c0 325 -4 592 -8
595 -4 2 -23 -3 -41 -11z"/>
<path d="M1790 2231 c0 -371 4 -592 10 -596 25 -15 129 75 150 131 6 15 10
210 10 467 0 439 0 442 -23 482 -25 44 -99 105 -128 105 -19 0 -19 -15 -19
-589z"/>
<path d="M2565 2808 c-32 -17 -85 -71 -101 -100 -11 -22 -14 -109 -14 -481 l0
-455 33 -48 c36 -54 115 -104 129 -82 9 15 11 1138 2 1162 -7 19 -21 20 -49 4z"/>
</g>
</svg>
