<svg width="70" height="70" viewBox="0 0 70 70" fill="none" xmlns="http://www.w3.org/2000/svg">
<g clip-path="url(#clip0_11_642)">
<mask id="mask0_11_642" style="mask-type:luminance" maskUnits="userSpaceOnUse" x="0" y="0" width="71" height="70">
<path d="M70.0007 16.1575L16.1582 0L0.000689755 53.8425L53.8432 70L70.0007 16.1575Z" fill="white"/>
</mask>
<g mask="url(#mask0_11_642)">
<path d="M18.0132 33.6447C22.5055 31.2257 28.1142 32.9087 30.5324 37.4017C32.9506 41.8946 31.2835 47.4958 26.7748 49.9235L20.264 53.4297C15.7714 55.8487 10.1628 54.1657 7.7446 49.6727C5.32637 45.1798 7.00979 39.57 11.5023 37.1509L18.0132 33.6447ZM24.1462 45.04C25.9368 44.076 26.6132 41.822 25.6493 40.0313C24.6857 38.2405 22.4483 37.5555 20.6416 38.5286L14.1308 42.0344C12.3403 42.9987 11.664 45.2525 12.6278 47.0431C13.5915 48.8339 15.8449 49.5101 17.6356 48.5458L24.1462 45.04ZM49.7319 16.5688C54.2242 14.1496 59.833 15.8327 62.2513 20.3257C64.6695 24.8187 63.0021 30.4196 58.4935 32.8475L51.9827 36.3537C47.4903 38.7727 41.8815 37.0897 39.4633 32.5967C37.045 28.1038 38.7287 22.494 43.221 20.0748L49.7319 16.5688ZM55.8649 27.9639C57.6555 26.9998 58.3319 24.746 57.368 22.9551C56.4043 21.1645 54.1672 20.4795 52.3603 21.4524L45.8497 24.9584C44.059 25.9227 43.3826 28.1765 44.3465 29.9671C45.3102 31.7579 47.5636 32.4341 49.3542 31.4698L55.8649 27.9639Z" fill="#9B9B9B"/>
<path d="M32.2906 12.233C33.2601 12.2771 34.0082 13.1021 33.9616 14.0757L34.0797 19.5482C34.0331 20.5219 33.2096 21.2756 32.2401 21.2314C31.2708 21.1874 30.5227 20.3625 30.5691 19.3888L30.451 13.9163C30.4974 12.9426 31.3211 12.189 32.2906 12.233ZM23.1104 11.7135C22.6515 10.856 21.5862 10.5363 20.7309 10.9995C19.8759 11.4627 19.5544 12.5334 20.0134 13.3909L22.3636 17.7827L24.7135 22.1744C25.1725 23.0321 26.2377 23.3517 27.093 22.8885C27.9481 22.4254 28.2693 21.3547 27.8105 20.4972L23.1104 11.7135ZM17.7849 20.7062C16.9684 20.1814 15.881 20.4219 15.3564 21.2432C14.8316 22.0648 15.0681 23.1559 15.8844 23.6808L21.2658 27.1388C22.0823 27.6636 23.1696 27.4228 23.6942 26.6015C24.219 25.7802 23.9825 24.689 23.166 24.1642L17.7849 20.7062Z" fill="#F9E25B"/>
<path d="M36.0381 31.5677L38.6866 36.4875L47.2748 31.864C48.636 31.131 49.1431 29.441 48.4105 28.0798C47.6777 26.7186 45.9873 26.2114 44.6263 26.944L36.0381 31.5677Z" fill="#BEBEBE"/>
<path d="M35.4984 35.0216C36.2263 36.3828 37.651 37.0399 38.6801 36.4894C39.7092 35.9389 39.9534 34.3894 39.2254 33.0282C38.4974 31.667 37.073 31.0099 36.0438 31.5604C35.0145 32.1109 34.7704 33.6604 35.4984 35.0216Z" fill="#D9D9D9"/>
<path fill-rule="evenodd" clip-rule="evenodd" d="M32.4068 39.8179C32.4445 39.8014 32.4819 39.7832 32.5184 39.7635C33.5473 39.2134 33.7911 37.6639 33.0631 36.3029C32.3351 34.9417 30.9111 34.2846 29.8821 34.8347C29.85 34.8519 29.8189 34.87 29.7884 34.8891L29.7854 34.8835L22.6899 38.7038C21.3287 39.4366 20.8215 41.1269 21.5541 42.4881C22.2869 43.8493 23.9937 44.3476 25.3384 43.6236L32.4068 39.8179Z" fill="#BEBEBE"/>
<path d="M7.22754 42.3456V42.3616H11.8642L14.1253 42.094L15.2582 41.3578L8.00912 41.5437C7.6626 41.5525 7.36105 41.783 7.26127 42.1151C7.23898 42.1898 7.22754 42.2675 7.22754 42.3456Z" fill="#121214" stroke="#121214" stroke-width="0.200766"/>
<path d="M31.5942 40.5547C28.2386 40.6438 21.487 40.8492 21.3276 40.9562C21.1682 41.0632 21.4166 42.0046 21.5826 42.3616C24.9053 42.1831 31.4408 41.9868 31.5205 41.5585C31.6004 41.1303 31.6607 40.5547 31.5942 40.5547Z" fill="#121214" stroke="#121214" stroke-width="0.200766"/>
</g>
<path d="M96.6593 38.3338L-28.71 43.9225L-26.6478 90.1833L98.7216 84.5946L96.6593 38.3338Z" fill="#F9E25B"/>
<path d="M9.26356 51.6402L10.5003 52.742C10.4103 52.9968 10.178 53.2592 9.80322 53.529C9.42846 53.7838 8.95625 53.9937 8.38661 54.1586C7.81697 54.3235 7.18737 54.4059 6.4978 54.4059V50.9881C7.02247 50.9881 7.53215 50.9056 8.02684 50.7408C8.52153 50.5609 8.94876 50.3135 9.30853 49.9987C9.66831 49.6689 9.91565 49.2867 10.0506 48.8519H12.9288V64.1648H9.26356V51.6402ZM20.8009 64.4571C19.6616 64.4571 18.6572 64.1423 17.7878 63.5127C16.9183 62.8831 16.2438 61.9762 15.7641 60.7919C15.2994 59.6077 15.067 58.1911 15.067 56.5421C15.067 54.8781 15.2994 53.454 15.7641 52.2698C16.2438 51.0855 16.9183 50.1711 17.7878 49.5265C18.6572 48.8819 19.6616 48.5596 20.8009 48.5596C21.9702 48.5596 22.982 48.8819 23.8365 49.5265C24.6909 50.1711 25.3505 51.0855 25.8152 52.2698C26.2949 53.454 26.5348 54.8781 26.5348 56.5421C26.5348 58.1911 26.2949 59.6077 25.8152 60.7919C25.3505 61.9762 24.6909 62.8831 23.8365 63.5127C22.982 64.1423 21.9702 64.4571 20.8009 64.4571ZM20.8009 60.8819C21.3256 60.8819 21.7303 60.687 22.0151 60.2972C22.3 59.8925 22.5023 59.3603 22.6223 58.7007C22.7572 58.0412 22.8246 57.3216 22.8246 56.5421C22.8246 55.8375 22.7647 55.148 22.6447 54.4734C22.5248 53.7988 22.3224 53.2517 22.0376 52.8319C21.7528 52.3972 21.3406 52.1798 20.8009 52.1798C20.2762 52.1798 19.864 52.3972 19.5642 52.8319C19.2644 53.2517 19.0545 53.7988 18.9346 54.4734C18.8296 55.148 18.7772 55.8375 18.7772 56.5421C18.7772 57.3216 18.8371 58.0412 18.9571 58.7007C19.077 59.3603 19.2869 59.8925 19.5867 60.2972C19.8865 60.687 20.2912 60.8819 20.8009 60.8819ZM33.8497 64.5471C32.9353 64.5471 32.0883 64.4121 31.3088 64.1423C30.5293 63.8725 29.8322 63.4752 29.2176 62.9506C28.618 62.4259 28.1158 61.7663 27.7111 60.9718L30.4768 59.1954C30.8966 59.84 31.4137 60.3422 32.0284 60.702C32.658 61.0468 33.3325 61.2192 34.0521 61.2192C34.6517 61.2192 35.1014 61.0992 35.4012 60.8594C35.701 60.6195 35.8509 60.3047 35.8509 59.915C35.8509 59.6751 35.7835 59.4578 35.6486 59.2629C35.5137 59.068 35.2588 58.8881 34.8841 58.7232C34.5093 58.5433 33.9771 58.3784 33.2876 58.2285C31.9984 57.9287 30.979 57.554 30.2295 57.1042C29.48 56.6545 28.9478 56.1149 28.633 55.4853C28.3182 54.8407 28.1608 54.1136 28.1608 53.3041C28.1608 52.4047 28.3857 51.5952 28.8354 50.8757C29.3001 50.1411 29.9597 49.564 30.8141 49.1443C31.6836 48.7095 32.7029 48.4922 33.8722 48.4922C35.2064 48.4922 36.3381 48.7545 37.2676 49.2792C38.197 49.8038 38.924 50.4859 39.4487 51.3254L36.6829 53.3041C36.3082 52.8095 35.836 52.4572 35.2663 52.2473C34.7117 52.0374 34.1645 51.9325 33.6248 51.9325C33.0702 51.9325 32.628 52.0374 32.2982 52.2473C31.9834 52.4572 31.826 52.757 31.826 53.1467C31.826 53.5065 31.9909 53.8063 32.3207 54.0462C32.6655 54.271 33.3325 54.4959 34.3219 54.7207C35.5811 55.0206 36.6005 55.3878 37.38 55.8226C38.1595 56.2573 38.7291 56.7969 39.0889 57.4415C39.4637 58.0711 39.6511 58.8431 39.6511 59.7576C39.6511 60.687 39.4112 61.5115 38.9315 62.231C38.4668 62.9506 37.7997 63.5202 36.9303 63.9399C36.0758 64.3447 35.049 64.5471 33.8497 64.5471ZM50.8335 52.9444C50.8335 53.589 50.7511 54.2036 50.5862 54.7882C50.4213 55.3578 50.1215 55.9575 49.6868 56.5871C49.267 57.2017 48.6749 57.8987 47.9104 58.6783L44.605 62.1636L44.1103 60.6345H50.9235V64.1648H40.9173V61.1067L44.8973 57.0368C45.5569 56.3622 46.0515 55.8151 46.3813 55.3953C46.7261 54.9606 46.9585 54.5933 47.0784 54.2935C47.1983 53.9787 47.2583 53.6789 47.2583 53.3941C47.2583 53.0043 47.1384 52.697 46.8985 52.4722C46.6587 52.2323 46.3514 52.1124 45.9766 52.1124C45.5419 52.1124 45.0847 52.2698 44.605 52.5846C44.1403 52.8844 43.6381 53.3866 43.0984 54.0911L40.535 52.1124C40.9398 51.4678 41.4045 50.8757 41.9291 50.336C42.4688 49.7963 43.0834 49.3691 43.773 49.0543C44.4775 48.7245 45.2645 48.5596 46.134 48.5596C47.1384 48.5596 47.9853 48.762 48.6749 49.1667C49.3795 49.5565 49.9116 50.0812 50.2714 50.7408C50.6462 51.4003 50.8335 52.1349 50.8335 52.9444ZM55.8797 58.5658L52.9115 57.8912V48.8519H62.6704V52.4047H55.1601L56.3968 50.8082V56.8794L55.1376 56.2723C55.5724 55.5377 56.1045 54.9981 56.7341 54.6533C57.3637 54.2935 58.1208 54.1136 59.0052 54.1136C59.8297 54.1136 60.5792 54.316 61.2538 54.7207C61.9434 55.1105 62.483 55.6801 62.8728 56.4297C63.2775 57.1792 63.4799 58.0711 63.4799 59.1055C63.4799 60.2298 63.24 61.1967 62.7603 62.0062C62.2956 62.8007 61.6435 63.4078 60.8041 63.8275C59.9796 64.2472 59.0202 64.4571 57.9259 64.4571C56.7866 64.4571 55.7448 64.2323 54.8004 63.7825C53.8709 63.3178 53.1439 62.6807 52.6192 61.8712L55.7897 59.9824C56.0596 60.3422 56.3669 60.612 56.7116 60.7919C57.0564 60.9718 57.4387 61.0618 57.8584 61.0618C58.473 61.0618 58.9452 60.8969 59.275 60.5671C59.6048 60.2373 59.7697 59.8025 59.7697 59.2629C59.7697 58.7682 59.5973 58.3635 59.2525 58.0486C58.9078 57.7189 58.458 57.554 57.9034 57.554C57.5136 57.554 57.1539 57.6364 56.8241 57.8013C56.4943 57.9512 56.1795 58.206 55.8797 58.5658Z" fill="black"/>
</g>
<defs>
<clipPath id="clip0_11_642">
<rect width="70" height="70" fill="white"/>
</clipPath>
</defs>
</svg>
