<svg width="24" height="24" viewBox="0 0 24 24" fill="none" xmlns="http://www.w3.org/2000/svg">
    <path d="M21.7504 7.27504V10.7625C21.5629 10.7625 21.3379 10.8 21.1129 10.8C19.4254 10.8 17.8504 10.1625 16.6504 9.15004V16.575C16.6504 18.075 16.1629 19.5 15.3004 20.625C14.1004 22.2375 12.1504 23.325 9.93789 23.325C7.53789 23.325 5.43789 22.05 4.27539 20.175C5.47539 21.3 7.08789 22.0125 8.85039 22.0125C11.0254 22.0125 12.9754 20.9625 14.1754 19.3125C15.0004 18.1875 15.5254 16.8 15.5254 15.2625V7.80004C16.7254 8.85004 18.2629 9.45004 19.9879 9.45004C20.2129 9.45004 20.4004 9.45004 20.6254 9.41254V7.16254C20.9629 7.23754 21.2629 7.27504 21.6004 7.27504H21.7504Z" fill="#FF004F"/>
    <path d="M10.8754 9.86257V13.7251C10.6129 13.6501 10.3129 13.6126 10.0504 13.6126C8.40039 13.6126 7.05039 15.0001 7.05039 16.6876C7.05039 17.0626 7.12539 17.4001 7.23789 17.7376C6.48789 17.1751 5.96289 16.2751 5.96289 15.2626C5.96289 13.5751 7.31289 12.1876 8.96289 12.1876C9.26289 12.1876 9.52539 12.2251 9.78789 12.3001V9.82507C9.86289 9.82507 9.93789 9.82507 10.0129 9.82507C10.3129 9.82507 10.6129 9.82507 10.8754 9.86257Z" fill="#FF004F"/>
    <path d="M17.2131 4.50006C16.5381 3.90006 16.0506 3.07506 15.7881 2.21255H16.6881C16.6881 2.40005 16.6881 2.55005 16.6881 2.73756C16.7631 3.33756 16.9506 3.93756 17.2131 4.50006Z" fill="#FF004F"/>
    <path d="M20.6633 7.20003V9.45003C20.4758 9.48753 20.2508 9.48752 20.0258 9.48752C18.3383 9.48752 16.7633 8.85003 15.5633 7.83752V15.2625C15.5633 16.7625 15.0758 18.1875 14.2133 19.3125C12.9758 20.9625 11.0633 22.0125 8.88828 22.0125C7.12578 22.0125 5.51328 21.3 4.31328 20.175C3.67578 19.125 3.30078 17.925 3.30078 16.6125C3.30078 12.975 6.18828 10.0125 9.78828 9.90002V12.375C9.52578 12.3 9.22578 12.2625 8.96328 12.2625C7.31328 12.2625 5.96328 13.65 5.96328 15.3375C5.96328 16.35 6.45078 17.2875 7.23828 17.8125C7.65078 18.975 8.77578 19.8375 10.0508 19.8375C11.7008 19.8375 13.0508 18.45 13.0508 16.7625V2.21252H15.7883C16.0508 3.11252 16.5383 3.90002 17.2133 4.50002C17.8883 5.85002 19.1633 6.86252 20.6633 7.20003Z" fill="white"/>
    <path d="M9.7875 8.54998V9.82498C6.1875 9.93748 3.3 12.9 3.3 16.5375C3.3 17.85 3.675 19.05 4.3125 20.1C3.0375 18.8625 2.25 17.1375 2.25 15.1875C2.25 11.475 5.25 8.47498 8.925 8.47498C9.225 8.47498 9.525 8.51248 9.7875 8.54998Z" fill="#00F7EF"/>
    <path d="M15.7883 2.2125H13.0508V16.6875C13.0508 18.375 11.7008 19.7625 10.0508 19.7625C8.73828 19.7625 7.65078 18.9375 7.23828 17.7375C7.72578 18.075 8.32578 18.3 8.96328 18.3C10.6133 18.3 11.9633 16.95 11.9633 15.2625V0.75H15.6008V0.825C15.6008 0.975 15.6008 1.125 15.6383 1.275C15.6383 1.575 15.7133 1.9125 15.7883 2.2125Z" fill="#00F7EF"/>
    <path d="M20.6633 5.8125V7.1625C19.1633 6.8625 17.8883 5.85 17.1758 4.5C18.1133 5.3625 19.3133 5.85 20.6633 5.8125Z" fill="#00F7EF"/>
</svg>
